<svg width="360" height="103" viewBox="0 0 360 103" fill="none" xmlns="http://www.w3.org/2000/svg">
<g filter="url(#filter0_d_1_2478)">
<rect width="360" height="77" transform="translate(0 26)" fill="white"/>
<path d="M33.1153 52.4956L38.9956 46.6153M35.5956 44.1873L38.5988 41.1841C40.1775 39.6053 42.7372 39.6053 44.316 41.1841C45.8947 42.7628 45.8947 45.3225 44.316 46.9013L41.9771 49.2402M36.4121 54.8052L33.4013 57.816C31.8225 59.3948 29.2628 59.3948 27.6841 57.816C26.1053 56.2373 26.1053 53.6776 27.6841 52.0988L30.5427 49.2402" stroke="black" stroke-width="1.75" stroke-linecap="round" stroke-linejoin="round"/>
<path d="M23.6137 79.5V71.8H24.8897V79.5H23.6137ZM24.5047 79.5V78.334H28.3767V79.5H24.5047ZM29.2927 79.5L29.3037 74H30.5247L30.5137 79.5H29.2927ZM29.9087 72.955C29.7107 72.955 29.5384 72.8853 29.3917 72.746C29.2524 72.5993 29.1827 72.427 29.1827 72.229C29.1827 72.031 29.2524 71.8623 29.3917 71.723C29.5384 71.5837 29.7107 71.514 29.9087 71.514C30.1067 71.514 30.2754 71.5837 30.4147 71.723C30.5614 71.8623 30.6347 72.031 30.6347 72.229C30.6347 72.427 30.5614 72.5993 30.4147 72.746C30.2754 72.8853 30.1067 72.955 29.9087 72.955ZM31.9657 79.5V74H33.1207L33.1977 75.012V79.5H31.9657ZM35.6947 79.5V76.684L36.9267 76.354V79.5H35.6947ZM35.6947 76.684C35.6947 76.244 35.6434 75.9067 35.5407 75.672C35.4454 75.43 35.306 75.2613 35.1227 75.166C34.9467 75.0707 34.7377 75.023 34.4957 75.023C34.085 75.0157 33.766 75.1513 33.5387 75.43C33.3114 75.7087 33.1977 76.1083 33.1977 76.629H32.7357C32.7357 76.0497 32.82 75.5547 32.9887 75.144C33.1574 74.726 33.3994 74.4107 33.7147 74.198C34.03 73.978 34.404 73.868 34.8367 73.868C35.504 73.868 36.0174 74.0733 36.3767 74.484C36.7434 74.8873 36.9267 75.5107 36.9267 76.354L35.6947 76.684ZM39.3517 77.96L38.6037 77.113L41.4637 74H42.9487L39.3517 77.96ZM38.1747 79.5V71.8H39.4067V79.5H38.1747ZM41.6727 79.5L39.7367 76.651L40.5397 75.793L43.1357 79.5H41.6727ZM45.8593 79.632C45.4926 79.632 45.1553 79.577 44.8473 79.467C44.5393 79.357 44.2753 79.203 44.0553 79.005C43.8353 78.7997 43.6666 78.5613 43.5493 78.29L44.6163 77.817C44.7263 78.0223 44.8876 78.1947 45.1003 78.334C45.3203 78.4733 45.5623 78.543 45.8263 78.543C46.1123 78.543 46.3396 78.4953 46.5083 78.4C46.6843 78.2973 46.7723 78.158 46.7723 77.982C46.7723 77.8133 46.7063 77.685 46.5743 77.597C46.4423 77.5017 46.2553 77.4247 46.0133 77.366L45.4963 77.223C44.9756 77.091 44.5686 76.882 44.2753 76.596C43.982 76.3027 43.8353 75.969 43.8353 75.595C43.8353 75.045 44.0113 74.6197 44.3633 74.319C44.7226 74.0183 45.236 73.868 45.9033 73.868C46.2406 73.868 46.5486 73.9193 46.8273 74.022C47.1133 74.1173 47.359 74.2567 47.5643 74.44C47.7696 74.616 47.9126 74.825 47.9933 75.067L46.9703 75.529C46.897 75.3457 46.7576 75.2063 46.5523 75.111C46.347 75.0083 46.1196 74.957 45.8703 74.957C45.621 74.957 45.4266 75.012 45.2873 75.122C45.148 75.2247 45.0783 75.3713 45.0783 75.562C45.0783 75.672 45.1406 75.7747 45.2653 75.87C45.39 75.958 45.5696 76.0313 45.8043 76.09L46.4533 76.244C46.8126 76.332 47.106 76.4713 47.3333 76.662C47.5606 76.8453 47.7293 77.0543 47.8393 77.289C47.9493 77.5163 48.0043 77.7473 48.0043 77.982C48.0043 78.312 47.909 78.6017 47.7183 78.851C47.535 79.1003 47.282 79.2947 46.9593 79.434C46.6366 79.566 46.27 79.632 45.8593 79.632Z" fill="black"/>
<path d="M249.038 52.5646V56.8767C249.038 57.7555 248.326 58.4678 247.447 58.4678C246.639 58.4678 245.96 57.8624 245.867 57.0598L245.346 52.5646M243.5 50.8937V48.1063C243.5 47.4604 243.872 46.8723 244.456 46.596C244.68 46.4903 244.924 46.4355 245.171 46.4355H249.43C249.576 46.4355 249.719 46.3931 249.841 46.3133L256.406 42.0224C257.736 41.153 259.5 42.1074 259.5 43.6966V55.3035C259.5 56.8927 257.736 57.8471 256.406 56.9776L249.841 52.6868C249.719 52.607 249.576 52.5646 249.43 52.5646H245.171C244.924 52.5646 244.68 52.5097 244.456 52.4041C243.872 52.1278 243.5 51.5397 243.5 50.8937Z" stroke="#999CA0" stroke-width="1.75"/>
<path d="M228.43 79.632C227.689 79.632 227.029 79.4633 226.45 79.126C225.878 78.7813 225.427 78.312 225.097 77.718C224.774 77.1167 224.613 76.4273 224.613 75.65C224.613 74.8727 224.774 74.187 225.097 73.593C225.427 72.9917 225.878 72.5223 226.45 72.185C227.022 71.8403 227.678 71.668 228.419 71.668C228.917 71.668 229.387 71.7597 229.827 71.943C230.267 72.119 230.655 72.3647 230.993 72.68C231.337 72.9953 231.601 73.362 231.785 73.78L230.619 74.253C230.487 73.9743 230.307 73.7287 230.08 73.516C229.86 73.296 229.607 73.1273 229.321 73.01C229.035 72.8927 228.734 72.834 228.419 72.834C227.935 72.834 227.502 72.955 227.121 73.197C226.747 73.439 226.45 73.7727 226.23 74.198C226.017 74.616 225.911 75.1 225.911 75.65C225.911 76.2 226.017 76.6877 226.23 77.113C226.45 77.5383 226.75 77.872 227.132 78.114C227.52 78.356 227.96 78.477 228.452 78.477C228.774 78.477 229.075 78.4147 229.354 78.29C229.64 78.158 229.893 77.9783 230.113 77.751C230.34 77.5237 230.52 77.2597 230.652 76.959L231.818 77.432C231.634 77.8647 231.374 78.2497 231.037 78.587C230.699 78.917 230.307 79.1737 229.86 79.357C229.412 79.5403 228.936 79.632 228.43 79.632ZM236.148 79.5L236.093 78.466V76.673C236.093 76.299 236.052 75.9873 235.972 75.738C235.891 75.4887 235.763 75.298 235.587 75.166C235.418 75.034 235.194 74.968 234.916 74.968C234.659 74.968 234.432 75.023 234.234 75.133C234.036 75.243 233.871 75.4117 233.739 75.639L232.617 75.243C232.741 75.001 232.903 74.7737 233.101 74.561C233.299 74.3483 233.548 74.1797 233.849 74.055C234.157 73.9303 234.52 73.868 234.938 73.868C235.473 73.868 235.917 73.967 236.269 74.165C236.628 74.363 236.896 74.6563 237.072 75.045C237.248 75.4337 237.336 75.914 237.336 76.486L237.303 79.5H236.148ZM234.586 79.632C233.926 79.632 233.412 79.4853 233.046 79.192C232.686 78.8987 232.507 78.4843 232.507 77.949C232.507 77.377 232.697 76.9407 233.079 76.64C233.467 76.3393 234.006 76.189 234.696 76.189H236.17V77.135H235.092C234.6 77.135 234.256 77.2047 234.058 77.344C233.86 77.476 233.761 77.6667 233.761 77.916C233.761 78.1287 233.845 78.2973 234.014 78.422C234.19 78.5393 234.432 78.598 234.74 78.598C235.011 78.598 235.246 78.5357 235.444 78.411C235.649 78.279 235.807 78.1103 235.917 77.905C236.034 77.6923 236.093 77.465 236.093 77.223H236.544C236.544 77.971 236.382 78.5613 236.06 78.994C235.744 79.4193 235.253 79.632 234.586 79.632ZM238.583 79.5V74H239.738L239.815 75.012V79.5H238.583ZM242.312 79.5V76.684L243.544 76.354V79.5H242.312ZM246.052 79.5V76.684L247.273 76.354V79.5H246.052ZM242.312 76.684C242.312 76.244 242.261 75.9067 242.158 75.672C242.063 75.43 241.924 75.2613 241.74 75.166C241.564 75.0707 241.355 75.023 241.113 75.023C240.703 75.0157 240.384 75.1513 240.156 75.43C239.929 75.7087 239.815 76.1083 239.815 76.629H239.353C239.353 76.0497 239.438 75.5547 239.606 75.144C239.775 74.726 240.017 74.4107 240.332 74.198C240.648 73.978 241.022 73.868 241.454 73.868C242.122 73.868 242.635 74.0733 242.994 74.484C243.361 74.8873 243.544 75.5107 243.544 76.354L242.312 76.684ZM246.052 76.684C246.052 76.244 246.001 75.9067 245.898 75.672C245.796 75.43 245.653 75.2613 245.469 75.166C245.293 75.0707 245.088 75.023 244.853 75.023C244.435 75.0157 244.113 75.1513 243.885 75.43C243.658 75.7087 243.544 76.1083 243.544 76.629H243.082C243.082 76.0497 243.167 75.5547 243.335 75.144C243.504 74.726 243.746 74.4107 244.061 74.198C244.377 73.978 244.751 73.868 245.183 73.868C245.851 73.868 246.368 74.0733 246.734 74.484C247.101 74.8873 247.281 75.5107 247.273 76.354L246.052 76.684ZM248.586 81.7V74H249.741L249.818 75.012V81.7H248.586ZM251.556 79.632C251.094 79.632 250.694 79.5147 250.357 79.28C250.027 79.038 249.774 78.7007 249.598 78.268C249.422 77.8353 249.334 77.3293 249.334 76.75C249.334 76.1633 249.422 75.6573 249.598 75.232C249.774 74.7993 250.027 74.4657 250.357 74.231C250.694 73.989 251.094 73.868 251.556 73.868C252.054 73.868 252.487 73.989 252.854 74.231C253.228 74.4657 253.517 74.7993 253.723 75.232C253.935 75.6573 254.042 76.1633 254.042 76.75C254.042 77.3293 253.935 77.8353 253.723 78.268C253.517 78.7007 253.228 79.038 252.854 79.28C252.487 79.5147 252.054 79.632 251.556 79.632ZM251.248 78.51C251.541 78.51 251.801 78.4367 252.029 78.29C252.256 78.136 252.436 77.927 252.568 77.663C252.707 77.399 252.777 77.0947 252.777 76.75C252.777 76.4053 252.711 76.101 252.579 75.837C252.454 75.573 252.278 75.3677 252.051 75.221C251.823 75.0743 251.559 75.001 251.259 75.001C250.98 75.001 250.731 75.0743 250.511 75.221C250.291 75.3677 250.118 75.573 249.994 75.837C249.876 76.101 249.818 76.4053 249.818 76.75C249.818 77.0947 249.876 77.399 249.994 77.663C250.118 77.927 250.287 78.136 250.5 78.29C250.72 78.4367 250.969 78.51 251.248 78.51ZM258.427 79.5L258.372 78.466V76.673C258.372 76.299 258.332 75.9873 258.251 75.738C258.17 75.4887 258.042 75.298 257.866 75.166C257.697 75.034 257.474 74.968 257.195 74.968C256.938 74.968 256.711 75.023 256.513 75.133C256.315 75.243 256.15 75.4117 256.018 75.639L254.896 75.243C255.021 75.001 255.182 74.7737 255.38 74.561C255.578 74.3483 255.827 74.1797 256.128 74.055C256.436 73.9303 256.799 73.868 257.217 73.868C257.752 73.868 258.196 73.967 258.548 74.165C258.907 74.363 259.175 74.6563 259.351 75.045C259.527 75.4337 259.615 75.914 259.615 76.486L259.582 79.5H258.427ZM256.865 79.632C256.205 79.632 255.692 79.4853 255.325 79.192C254.966 78.8987 254.786 78.4843 254.786 77.949C254.786 77.377 254.977 76.9407 255.358 76.64C255.747 76.3393 256.286 76.189 256.975 76.189H258.449V77.135H257.371C256.88 77.135 256.535 77.2047 256.337 77.344C256.139 77.476 256.04 77.6667 256.04 77.916C256.04 78.1287 256.124 78.2973 256.293 78.422C256.469 78.5393 256.711 78.598 257.019 78.598C257.29 78.598 257.525 78.5357 257.723 78.411C257.928 78.279 258.086 78.1103 258.196 77.905C258.313 77.6923 258.372 77.465 258.372 77.223H258.823C258.823 77.971 258.662 78.5613 258.339 78.994C258.024 79.4193 257.532 79.632 256.865 79.632ZM260.94 79.5L260.951 74H262.172L262.161 79.5H260.94ZM261.556 72.955C261.358 72.955 261.185 72.8853 261.039 72.746C260.899 72.5993 260.83 72.427 260.83 72.229C260.83 72.031 260.899 71.8623 261.039 71.723C261.185 71.5837 261.358 71.514 261.556 71.514C261.754 71.514 261.922 71.5837 262.062 71.723C262.208 71.8623 262.282 72.031 262.282 72.229C262.282 72.427 262.208 72.5993 262.062 72.746C261.922 72.8853 261.754 72.955 261.556 72.955ZM265.978 81.843C265.589 81.843 265.237 81.81 264.922 81.744C264.614 81.678 264.353 81.601 264.141 81.513C263.928 81.425 263.763 81.3407 263.646 81.26L264.119 80.27C264.221 80.3213 264.357 80.3837 264.526 80.457C264.702 80.5377 264.907 80.6073 265.142 80.666C265.376 80.7247 265.64 80.754 265.934 80.754C266.249 80.754 266.531 80.688 266.781 80.556C267.03 80.4313 267.224 80.237 267.364 79.973C267.503 79.709 267.573 79.3717 267.573 78.961V74H268.805V78.928C268.805 79.5513 268.687 80.0793 268.453 80.512C268.218 80.952 267.888 81.282 267.463 81.502C267.037 81.7293 266.542 81.843 265.978 81.843ZM265.791 79.39C265.292 79.39 264.856 79.2763 264.482 79.049C264.115 78.8217 263.825 78.5063 263.613 78.103C263.407 77.6923 263.305 77.2193 263.305 76.684C263.305 76.112 263.407 75.617 263.613 75.199C263.825 74.781 264.115 74.4547 264.482 74.22C264.856 73.9853 265.292 73.868 265.791 73.868C266.238 73.868 266.627 73.9853 266.957 74.22C267.294 74.4547 267.554 74.7847 267.738 75.21C267.921 75.628 268.013 76.123 268.013 76.695C268.013 77.2377 267.921 77.7107 267.738 78.114C267.554 78.5173 267.294 78.8327 266.957 79.06C266.627 79.28 266.238 79.39 265.791 79.39ZM266.132 78.345C266.41 78.345 266.652 78.2717 266.858 78.125C267.07 77.9783 267.235 77.7803 267.353 77.531C267.47 77.2743 267.529 76.981 267.529 76.651C267.529 76.3137 267.47 76.0203 267.353 75.771C267.235 75.5143 267.07 75.3163 266.858 75.177C266.645 75.0303 266.399 74.957 266.121 74.957C265.827 74.957 265.567 75.0303 265.34 75.177C265.12 75.3163 264.944 75.5143 264.812 75.771C264.687 76.0203 264.625 76.3137 264.625 76.651C264.625 76.981 264.687 77.2743 264.812 77.531C264.944 77.7803 265.123 77.9783 265.351 78.125C265.578 78.2717 265.838 78.345 266.132 78.345ZM270.165 79.5V74H271.32L271.397 75.012V79.5H270.165ZM273.894 79.5V76.684L275.126 76.354V79.5H273.894ZM273.894 76.684C273.894 76.244 273.843 75.9067 273.74 75.672C273.645 75.43 273.506 75.2613 273.322 75.166C273.146 75.0707 272.937 75.023 272.695 75.023C272.285 75.0157 271.966 75.1513 271.738 75.43C271.511 75.7087 271.397 76.1083 271.397 76.629H270.935C270.935 76.0497 271.02 75.5547 271.188 75.144C271.357 74.726 271.599 74.4107 271.914 74.198C272.23 73.978 272.604 73.868 273.036 73.868C273.704 73.868 274.217 74.0733 274.576 74.484C274.943 74.8873 275.126 75.5107 275.126 76.354L273.894 76.684ZM278.376 79.632C278.01 79.632 277.672 79.577 277.364 79.467C277.056 79.357 276.792 79.203 276.572 79.005C276.352 78.7997 276.184 78.5613 276.066 78.29L277.133 77.817C277.243 78.0223 277.405 78.1947 277.617 78.334C277.837 78.4733 278.079 78.543 278.343 78.543C278.629 78.543 278.857 78.4953 279.025 78.4C279.201 78.2973 279.289 78.158 279.289 77.982C279.289 77.8133 279.223 77.685 279.091 77.597C278.959 77.5017 278.772 77.4247 278.53 77.366L278.013 77.223C277.493 77.091 277.086 76.882 276.792 76.596C276.499 76.3027 276.352 75.969 276.352 75.595C276.352 75.045 276.528 74.6197 276.88 74.319C277.24 74.0183 277.753 73.868 278.42 73.868C278.758 73.868 279.066 73.9193 279.344 74.022C279.63 74.1173 279.876 74.2567 280.081 74.44C280.287 74.616 280.43 74.825 280.51 75.067L279.487 75.529C279.414 75.3457 279.275 75.2063 279.069 75.111C278.864 75.0083 278.637 74.957 278.387 74.957C278.138 74.957 277.944 75.012 277.804 75.122C277.665 75.2247 277.595 75.3713 277.595 75.562C277.595 75.672 277.658 75.7747 277.782 75.87C277.907 75.958 278.087 76.0313 278.321 76.09L278.97 76.244C279.33 76.332 279.623 76.4713 279.85 76.662C280.078 76.8453 280.246 77.0543 280.356 77.289C280.466 77.5163 280.521 77.7473 280.521 77.982C280.521 78.312 280.426 78.6017 280.235 78.851C280.052 79.1003 279.799 79.2947 279.476 79.434C279.154 79.566 278.787 79.632 278.376 79.632Z" fill="#999CA0"/>
<path d="M134.545 26C143.688 26 151.623 20.1666 158.759 14.4501C164.578 9.78823 171.964 7 180 7C188.036 7 195.422 9.78823 201.241 14.4501C208.377 20.1666 216.312 26 225.455 26H235H125H134.545Z" fill="white"/>
<g filter="url(#filter1_d_1_2478)">
<rect x="150" y="12" width="60" height="60" rx="30" fill="#0E6FFF" shape-rendering="crispEdges"/>
<path d="M180 34L180 42M180 42L172 42M180 42L180 50M180 42L188 42" stroke="white" stroke-width="1.5" stroke-linecap="round" stroke-linejoin="round"/>
</g>
<path d="M108 42.9231V58.2692M117.5 42.5918V54.9746C117.5 55.8842 116.886 56.6792 116.006 56.9095L108.775 58.8016C108.278 58.9317 107.756 58.9319 107.259 58.8023L99.9986 56.9094C99.1163 56.6793 98.5013 55.8817 98.5032 54.9699L98.5289 42.5839C98.5316 41.2758 99.7686 40.3224 101.034 40.653L107.275 42.283C107.773 42.413 108.296 42.4128 108.794 42.2823L114.993 40.6572C116.261 40.3249 117.5 41.2813 117.5 42.5918Z" stroke="#999CA0" stroke-width="1.75" stroke-linecap="round"/>
<path d="M91.8197 79.632C91.0791 79.632 90.4191 79.4633 89.8397 79.126C89.2677 78.7813 88.8167 78.312 88.4867 77.718C88.1641 77.1167 88.0027 76.4273 88.0027 75.65C88.0027 74.8727 88.1641 74.187 88.4867 73.593C88.8167 72.9917 89.2677 72.5223 89.8397 72.185C90.4117 71.8403 91.0681 71.668 91.8087 71.668C92.3074 71.668 92.7767 71.7597 93.2167 71.943C93.6567 72.119 94.0454 72.3647 94.3827 72.68C94.7274 72.9953 94.9914 73.362 95.1747 73.78L94.0087 74.253C93.8767 73.9743 93.6971 73.7287 93.4697 73.516C93.2497 73.296 92.9967 73.1273 92.7107 73.01C92.4247 72.8927 92.1241 72.834 91.8087 72.834C91.3247 72.834 90.8921 72.955 90.5107 73.197C90.1367 73.439 89.8397 73.7727 89.6197 74.198C89.4071 74.616 89.3007 75.1 89.3007 75.65C89.3007 76.2 89.4071 76.6877 89.6197 77.113C89.8397 77.5383 90.1404 77.872 90.5217 78.114C90.9104 78.356 91.3504 78.477 91.8417 78.477C92.1644 78.477 92.4651 78.4147 92.7437 78.29C93.0297 78.158 93.2827 77.9783 93.5027 77.751C93.7301 77.5237 93.9097 77.2597 94.0417 76.959L95.2077 77.432C95.0244 77.8647 94.7641 78.2497 94.4267 78.587C94.0894 78.917 93.6971 79.1737 93.2497 79.357C92.8024 79.5403 92.3257 79.632 91.8197 79.632ZM98.7349 79.632C98.1849 79.632 97.6936 79.511 97.2609 79.269C96.8356 79.0197 96.5019 78.6787 96.2599 78.246C96.0179 77.8133 95.8969 77.3147 95.8969 76.75C95.8969 76.1853 96.0143 75.6867 96.2489 75.254C96.4909 74.8213 96.8246 74.484 97.2499 74.242C97.6753 73.9927 98.1629 73.868 98.7129 73.868C99.2629 73.868 99.7506 73.9927 100.176 74.242C100.601 74.484 100.931 74.8213 101.166 75.254C101.408 75.6867 101.529 76.1853 101.529 76.75C101.529 77.3147 101.412 77.8133 101.177 78.246C100.942 78.6787 100.612 79.0197 100.187 79.269C99.7616 79.511 99.2776 79.632 98.7349 79.632ZM98.7349 78.499C99.0356 78.499 99.3033 78.4257 99.5379 78.279C99.7726 78.125 99.9559 77.9197 100.088 77.663C100.22 77.399 100.286 77.0947 100.286 76.75C100.286 76.4053 100.216 76.1047 100.077 75.848C99.9449 75.584 99.7616 75.3787 99.5269 75.232C99.2923 75.078 99.0209 75.001 98.7129 75.001C98.4049 75.001 98.1336 75.0743 97.8989 75.221C97.6643 75.3677 97.4809 75.573 97.3489 75.837C97.2169 76.101 97.1509 76.4053 97.1509 76.75C97.1509 77.0947 97.2169 77.399 97.3489 77.663C97.4883 77.9197 97.6753 78.125 97.9099 78.279C98.1519 78.4257 98.4269 78.499 98.7349 78.499ZM106.282 79.5L106.216 78.488V74H107.437V79.5H106.282ZM102.476 77.146V74H103.708V76.816L102.476 77.146ZM103.708 76.816C103.708 77.2487 103.759 77.586 103.862 77.828C103.964 78.07 104.104 78.2387 104.28 78.334C104.463 78.4293 104.672 78.477 104.907 78.477C105.325 78.4843 105.647 78.3487 105.875 78.07C106.102 77.7913 106.216 77.3917 106.216 76.871H106.678C106.678 77.4503 106.59 77.949 106.414 78.367C106.245 78.7777 106.003 79.093 105.688 79.313C105.38 79.5257 105.009 79.632 104.577 79.632C103.909 79.632 103.392 79.4267 103.026 79.016C102.659 78.6053 102.476 77.982 102.476 77.146L103.708 76.816ZM109.62 76.574C109.62 75.98 109.733 75.4923 109.961 75.111C110.188 74.7297 110.481 74.4473 110.841 74.264C111.207 74.0733 111.589 73.978 111.985 73.978V75.155C111.647 75.155 111.328 75.2027 111.028 75.298C110.734 75.386 110.496 75.5327 110.313 75.738C110.129 75.9433 110.038 76.2147 110.038 76.552L109.62 76.574ZM108.806 79.5V74H110.038V79.5H108.806ZM114.804 79.632C114.437 79.632 114.1 79.577 113.792 79.467C113.484 79.357 113.22 79.203 113 79.005C112.78 78.7997 112.611 78.5613 112.494 78.29L113.561 77.817C113.671 78.0223 113.832 78.1947 114.045 78.334C114.265 78.4733 114.507 78.543 114.771 78.543C115.057 78.543 115.284 78.4953 115.453 78.4C115.629 78.2973 115.717 78.158 115.717 77.982C115.717 77.8133 115.651 77.685 115.519 77.597C115.387 77.5017 115.2 77.4247 114.958 77.366L114.441 77.223C113.92 77.091 113.513 76.882 113.22 76.596C112.926 76.3027 112.78 75.969 112.78 75.595C112.78 75.045 112.956 74.6197 113.308 74.319C113.667 74.0183 114.18 73.868 114.848 73.868C115.185 73.868 115.493 73.9193 115.772 74.022C116.058 74.1173 116.303 74.2567 116.509 74.44C116.714 74.616 116.857 74.825 116.938 75.067L115.915 75.529C115.841 75.3457 115.702 75.2063 115.497 75.111C115.291 75.0083 115.064 74.957 114.815 74.957C114.565 74.957 114.371 75.012 114.232 75.122C114.092 75.2247 114.023 75.3713 114.023 75.562C114.023 75.672 114.085 75.7747 114.21 75.87C114.334 75.958 114.514 76.0313 114.749 76.09L115.398 76.244C115.757 76.332 116.05 76.4713 116.278 76.662C116.505 76.8453 116.674 77.0543 116.784 77.289C116.894 77.5163 116.949 77.7473 116.949 77.982C116.949 78.312 116.853 78.6017 116.663 78.851C116.479 79.1003 116.226 79.2947 115.904 79.434C115.581 79.566 115.214 79.632 114.804 79.632ZM120.379 79.632C119.843 79.632 119.367 79.511 118.949 79.269C118.538 79.0197 118.212 78.6787 117.97 78.246C117.735 77.8133 117.618 77.3147 117.618 76.75C117.618 76.1853 117.739 75.6867 117.981 75.254C118.223 74.8213 118.553 74.484 118.971 74.242C119.396 73.9927 119.88 73.868 120.423 73.868C120.914 73.868 121.354 73.9963 121.743 74.253C122.139 74.5023 122.454 74.8653 122.689 75.342C122.923 75.8187 123.041 76.387 123.041 77.047H121.798C121.798 76.5703 121.739 76.178 121.622 75.87C121.512 75.562 121.35 75.3347 121.138 75.188C120.932 75.034 120.679 74.957 120.379 74.957C120.063 74.957 119.792 75.0267 119.565 75.166C119.337 75.3053 119.165 75.5107 119.048 75.782C118.93 76.046 118.872 76.3797 118.872 76.783C118.872 77.1423 118.941 77.4503 119.081 77.707C119.227 77.9637 119.422 78.1617 119.664 78.301C119.913 78.433 120.188 78.499 120.489 78.499C120.819 78.499 121.09 78.4257 121.303 78.279C121.515 78.125 121.68 77.9307 121.798 77.696L122.931 78.18C122.777 78.4733 122.579 78.73 122.337 78.95C122.102 79.17 121.82 79.3387 121.49 79.456C121.167 79.5733 120.797 79.632 120.379 79.632ZM118.432 77.047V76.068H122.392V77.047H118.432ZM125.986 79.632C125.62 79.632 125.282 79.577 124.974 79.467C124.666 79.357 124.402 79.203 124.182 79.005C123.962 78.7997 123.794 78.5613 123.676 78.29L124.743 77.817C124.853 78.0223 125.015 78.1947 125.227 78.334C125.447 78.4733 125.689 78.543 125.953 78.543C126.239 78.543 126.467 78.4953 126.635 78.4C126.811 78.2973 126.899 78.158 126.899 77.982C126.899 77.8133 126.833 77.685 126.701 77.597C126.569 77.5017 126.382 77.4247 126.14 77.366L125.623 77.223C125.103 77.091 124.696 76.882 124.402 76.596C124.109 76.3027 123.962 75.969 123.962 75.595C123.962 75.045 124.138 74.6197 124.49 74.319C124.85 74.0183 125.363 73.868 126.03 73.868C126.368 73.868 126.676 73.9193 126.954 74.022C127.24 74.1173 127.486 74.2567 127.691 74.44C127.897 74.616 128.04 74.825 128.12 75.067L127.097 75.529C127.024 75.3457 126.885 75.2063 126.679 75.111C126.474 75.0083 126.247 74.957 125.997 74.957C125.748 74.957 125.554 75.012 125.414 75.122C125.275 75.2247 125.205 75.3713 125.205 75.562C125.205 75.672 125.268 75.7747 125.392 75.87C125.517 75.958 125.697 76.0313 125.931 76.09L126.58 76.244C126.94 76.332 127.233 76.4713 127.46 76.662C127.688 76.8453 127.856 77.0543 127.966 77.289C128.076 77.5163 128.131 77.7473 128.131 77.982C128.131 78.312 128.036 78.6017 127.845 78.851C127.662 79.1003 127.409 79.2947 127.086 79.434C126.764 79.566 126.397 79.632 125.986 79.632Z" fill="#999CA0"/>
<path d="M328.384 44.3846C328.384 46.8062 326.421 48.7692 323.999 48.7692C321.578 48.7692 319.615 46.8062 319.615 44.3846C319.615 41.9631 321.578 40 323.999 40C326.421 40 328.384 41.9631 328.384 44.3846Z" stroke="#999CA0" stroke-width="1.75"/>
<path d="M323.999 59C328.343 59 330.845 57.8797 332.006 57.1586C332.549 56.8212 332.817 56.1999 332.761 55.5563C332.686 54.6773 332.379 53.7994 332.066 53.1031C331.656 52.1888 330.705 51.6923 329.703 51.6923H318.296C317.293 51.6923 316.343 52.1888 315.932 53.1031C315.62 53.7994 315.313 54.6773 315.237 55.5563C315.182 56.1999 315.45 56.8212 315.993 57.1586C317.154 57.8797 319.656 59 323.999 59Z" stroke="#999CA0" stroke-width="1.75"/>
<path d="M310.31 76.838V75.661H312.015C312.381 75.661 312.682 75.5363 312.917 75.287C313.151 75.0377 313.269 74.715 313.269 74.319C313.269 74.0477 313.206 73.813 313.082 73.615C312.964 73.4097 312.799 73.2483 312.587 73.131C312.374 73.0137 312.128 72.9587 311.85 72.966H310.31V71.8L311.872 71.789C312.4 71.789 312.865 71.899 313.269 72.119C313.672 72.3317 313.987 72.6287 314.215 73.01C314.442 73.384 314.556 73.8203 314.556 74.319C314.556 74.803 314.449 75.2357 314.237 75.617C314.024 75.9983 313.727 76.299 313.346 76.519C312.972 76.7317 312.535 76.838 312.037 76.838H310.31ZM309.155 79.5V71.8H310.431V79.5H309.155ZM316.237 76.574C316.237 75.98 316.35 75.4923 316.578 75.111C316.805 74.7297 317.098 74.4473 317.458 74.264C317.824 74.0733 318.206 73.978 318.602 73.978V75.155C318.264 75.155 317.945 75.2027 317.645 75.298C317.351 75.386 317.113 75.5327 316.93 75.738C316.746 75.9433 316.655 76.2147 316.655 76.552L316.237 76.574ZM315.423 79.5V74H316.655V79.5H315.423ZM321.949 79.632C321.399 79.632 320.907 79.511 320.475 79.269C320.049 79.0197 319.716 78.6787 319.474 78.246C319.232 77.8133 319.111 77.3147 319.111 76.75C319.111 76.1853 319.228 75.6867 319.463 75.254C319.705 74.8213 320.038 74.484 320.464 74.242C320.889 73.9927 321.377 73.868 321.927 73.868C322.477 73.868 322.964 73.9927 323.39 74.242C323.815 74.484 324.145 74.8213 324.38 75.254C324.622 75.6867 324.743 76.1853 324.743 76.75C324.743 77.3147 324.625 77.8133 324.391 78.246C324.156 78.6787 323.826 79.0197 323.401 79.269C322.975 79.511 322.491 79.632 321.949 79.632ZM321.949 78.499C322.249 78.499 322.517 78.4257 322.752 78.279C322.986 78.125 323.17 77.9197 323.302 77.663C323.434 77.399 323.5 77.0947 323.5 76.75C323.5 76.4053 323.43 76.1047 323.291 75.848C323.159 75.584 322.975 75.3787 322.741 75.232C322.506 75.078 322.235 75.001 321.927 75.001C321.619 75.001 321.347 75.0743 321.113 75.221C320.878 75.3677 320.695 75.573 320.563 75.837C320.431 76.101 320.365 76.4053 320.365 76.75C320.365 77.0947 320.431 77.399 320.563 77.663C320.702 77.9197 320.889 78.125 321.124 78.279C321.366 78.4257 321.641 78.499 321.949 78.499ZM326.36 79.5V73.417C326.36 72.8377 326.503 72.394 326.789 72.086C327.083 71.7707 327.523 71.613 328.109 71.613C328.3 71.613 328.502 71.646 328.714 71.712C328.934 71.7707 329.143 71.8513 329.341 71.954L328.89 72.867C328.751 72.801 328.626 72.7533 328.516 72.724C328.414 72.6947 328.322 72.68 328.241 72.68C328.021 72.68 327.856 72.7533 327.746 72.9C327.644 73.0393 327.592 73.2703 327.592 73.593V79.5H326.36ZM325.414 75.012V74H329.033V75.012H325.414ZM330.109 79.5L330.12 74H331.341L331.33 79.5H330.109ZM330.725 72.955C330.527 72.955 330.355 72.8853 330.208 72.746C330.069 72.5993 329.999 72.427 329.999 72.229C329.999 72.031 330.069 71.8623 330.208 71.723C330.355 71.5837 330.527 71.514 330.725 71.514C330.923 71.514 331.092 71.5837 331.231 71.723C331.378 71.8623 331.451 72.031 331.451 72.229C331.451 72.427 331.378 72.5993 331.231 72.746C331.092 72.8853 330.923 72.955 330.725 72.955ZM332.782 79.5V71.8H334.014V79.5H332.782ZM337.835 79.632C337.299 79.632 336.823 79.511 336.405 79.269C335.994 79.0197 335.668 78.6787 335.426 78.246C335.191 77.8133 335.074 77.3147 335.074 76.75C335.074 76.1853 335.195 75.6867 335.437 75.254C335.679 74.8213 336.009 74.484 336.427 74.242C336.852 73.9927 337.336 73.868 337.879 73.868C338.37 73.868 338.81 73.9963 339.199 74.253C339.595 74.5023 339.91 74.8653 340.145 75.342C340.379 75.8187 340.497 76.387 340.497 77.047H339.254C339.254 76.5703 339.195 76.178 339.078 75.87C338.968 75.562 338.806 75.3347 338.594 75.188C338.388 75.034 338.135 74.957 337.835 74.957C337.519 74.957 337.248 75.0267 337.021 75.166C336.793 75.3053 336.621 75.5107 336.504 75.782C336.386 76.046 336.328 76.3797 336.328 76.783C336.328 77.1423 336.397 77.4503 336.537 77.707C336.683 77.9637 336.878 78.1617 337.12 78.301C337.369 78.433 337.644 78.499 337.945 78.499C338.275 78.499 338.546 78.4257 338.759 78.279C338.971 78.125 339.136 77.9307 339.254 77.696L340.387 78.18C340.233 78.4733 340.035 78.73 339.793 78.95C339.558 79.17 339.276 79.3387 338.946 79.456C338.623 79.5733 338.253 79.632 337.835 79.632ZM335.888 77.047V76.068H339.848V77.047H335.888Z" fill="#999CA0"/>
</g>
<defs>
<filter id="filter0_d_1_2478" x="-6" y="0" width="372" height="108" filterUnits="userSpaceOnUse" color-interpolation-filters="sRGB">
<feFlood flood-opacity="0" result="BackgroundImageFix"/>
<feColorMatrix in="SourceAlpha" type="matrix" values="0 0 0 0 0 0 0 0 0 0 0 0 0 0 0 0 0 0 127 0" result="hardAlpha"/>
<feOffset dy="-1"/>
<feGaussianBlur stdDeviation="3"/>
<feComposite in2="hardAlpha" operator="out"/>
<feColorMatrix type="matrix" values="0 0 0 0 0 0 0 0 0 0 0 0 0 0 0 0 0 0 0.04 0"/>
<feBlend mode="normal" in2="BackgroundImageFix" result="effect1_dropShadow_1_2478"/>
<feBlend mode="normal" in="SourceGraphic" in2="effect1_dropShadow_1_2478" result="shape"/>
</filter>
<filter id="filter1_d_1_2478" x="138" y="4" width="84" height="84" filterUnits="userSpaceOnUse" color-interpolation-filters="sRGB">
<feFlood flood-opacity="0" result="BackgroundImageFix"/>
<feColorMatrix in="SourceAlpha" type="matrix" values="0 0 0 0 0 0 0 0 0 0 0 0 0 0 0 0 0 0 127 0" result="hardAlpha"/>
<feOffset dy="4"/>
<feGaussianBlur stdDeviation="6"/>
<feComposite in2="hardAlpha" operator="out"/>
<feColorMatrix type="matrix" values="0 0 0 0 0.054902 0 0 0 0 0.435294 0 0 0 0 1 0 0 0 0.4 0"/>
<feBlend mode="normal" in2="BackgroundImageFix" result="effect1_dropShadow_1_2478"/>
<feBlend mode="normal" in="SourceGraphic" in2="effect1_dropShadow_1_2478" result="shape"/>
</filter>
</defs>
</svg>
