<svg width="32" height="33" viewBox="0 0 32 33" fill="none" xmlns="http://www.w3.org/2000/svg">
<path d="M20.3839 11.3846C20.3839 13.8062 18.4208 15.7692 15.9992 15.7692C13.5777 15.7692 11.6146 13.8062 11.6146 11.3846C11.6146 8.96306 13.5777 7 15.9992 7C18.4208 7 20.3839 8.96306 20.3839 11.3846Z" stroke="#999CA0" stroke-width="1.75"/>
<path d="M15.9992 26C20.3425 26 22.8449 24.8797 24.0057 24.1586C24.5489 23.8212 24.8166 23.1999 24.7614 22.5563C24.6859 21.6773 24.3788 20.7994 24.0661 20.1031C23.6555 19.1888 22.7051 18.6923 21.7029 18.6923H10.2956C9.29337 18.6923 8.34296 19.1888 7.93239 20.1031C7.61969 20.7994 7.31257 21.6773 7.23713 22.5563C7.18189 23.1999 7.44961 23.8212 7.99278 24.1586C9.15358 24.8797 11.6559 26 15.9992 26Z" stroke="#999CA0" stroke-width="1.75"/>
</svg>
